{
  "accessors": [
    {
      "bufferView": 2,
      "componentType": 5126,
      "count": 131,
      "max": [
        0.3536548912525177,
        0.08388598263263702,
        0.3536548912525177
      ],
      "min": [
        -0.3536548912525177,
        -0.08388598263263702,
        -0.3536548912525177
      ],
      "type": "VEC3"
    },
    {
      "bufferView": 2,
      "byteOffset": 1572,
      "componentType": 5126,
      "count": 131,
      "max": [
        0.999081552028656,
        0.999081552028656,
        0.999081552028656
      ],
      "min": [
        -0.999081552028656,
        -0.999081552028656,
        -0.999081552028656
      ],
      "type": "VEC3"
    },
    {
      "bufferView": 1,
      "componentType": 5126,
      "count": 131,
      "max": [
        0.875,
        1.0
      ],
      "min": [
        0.125,
        0.0
      ],
      "type": "VEC2"
    },
    {
      "bufferView": 0,
      "componentType": 5125,
      "count": 564,
      "type": "SCALAR"
    },
    {
      "bufferView": 2,
      "byteOffset": 3144,
      "componentType": 5126,
      "count": 65532,
      "max": [
        0.299591064453125,
        0.4853515625,
        0.15643310546875
      ],
      "min": [
        -0.148590087890625,
        -0.49285888671875,
        -0.309356689453125
      ],
      "type": "VEC3"
    },
    {
      "bufferView": 2,
      "byteOffset": 789528,
      "componentType": 5126,
      "count": 65532,
      "max": [
        0.9999688863754272,
        1.0,
        1.0
      ],
      "min": [
        -1.0,
        -0.9999375939369202,
        -1.0
      ],
      "type": "VEC3"
    },
    {
      "bufferView": 1,
      "byteOffset": 1048,
      "componentType": 5126,
      "count": 65532,
      "max": [
        0.993896484375,
        1.0
      ],
      "min": [
        0.0,
        0.00634765625
      ],
      "type": "VEC2"
    },
    {
      "bufferView": 0,
      "byteOffset": 2256,
      "componentType": 5125,
      "count": 313263,
      "type": "SCALAR"
    },
    {
      "bufferView": 2,
      "byteOffset": 1575912,
      "componentType": 5126,
      "count": 65532,
      "max": [
        0.2928466796875,
        0.49554443359375,
        0.10834503173828125
      ],
      "min": [
        -0.270416259765625,
        -0.44635009765625,
        -0.309356689453125
      ],
      "type": "VEC3"
    },
    {
      "bufferView": 2,
      "byteOffset": 2362296,
      "componentType": 5126,
      "count": 65532,
      "max": [
        1.0,
        0.9966368675231934,
        0.999845564365387
      ],
      "min": [
        -0.9996910691261292,
        -0.9996903538703918,
        -1.0
      ],
      "type": "VEC3"
    },
    {
      "bufferView": 1,
      "byteOffset": 525304,
      "componentType": 5126,
      "count": 65532,
      "max": [
        0.995361328125,
        0.998291015625
      ],
      "min": [
        0.000244140625,
        0.01025390625
      ],
      "type": "VEC2"
    },
    {
      "bufferView": 0,
      "byteOffset": 1255308,
      "componentType": 5125,
      "count": 306822,
      "type": "SCALAR"
    },
    {
      "bufferView": 2,
      "byteOffset": 3148680,
      "componentType": 5126,
      "count": 65532,
      "max": [
        0.217742919921875,
        0.458892822265625,
        0.156890869140625
      ],
      "min": [
        -0.2984619140625,
        -0.468414306640625,
        -0.30908203125
      ],
      "type": "VEC3"
    },
    {
      "bufferView": 2,
      "byteOffset": 3935064,
      "componentType": 5126,
      "count": 65532,
      "max": [
        0.9999383687973022,
        0.9999383687973022,
        0.9999696016311646
      ],
      "min": [
        -0.9999688863754272,
        -0.9986066222190857,
        -1.0
      ],
      "type": "VEC3"
    },
    {
      "bufferView": 1,
      "byteOffset": 1049560,
      "componentType": 5126,
      "count": 65532,
      "max": [
        1.0,
        0.99755859375
      ],
      "min": [
        0.0,
        0.00830078125
      ],
      "type": "VEC2"
    },
    {
      "bufferView": 0,
      "byteOffset": 2482596,
      "componentType": 5125,
      "count": 281526,
      "type": "SCALAR"
    },
    {
      "bufferView": 2,
      "byteOffset": 4721448,
      "componentType": 5126,
      "count": 65532,
      "max": [
        0.2742919921875,
        0.477294921875,
        0.11211395263671875
      ],
      "min": [
        -0.3013916015625,
        -0.499847412109375,
        -0.279571533203125
      ],
      "type": "VEC3"
    },
    {
      "bufferView": 2,
      "byteOffset": 5507832,
      "componentType": 5126,
      "count": 65532,
      "max": [
        1.0,
        0.9999710321426392,
        0.9996903538703918
      ],
      "min": [
        -1.0,
        -0.9999375939369202,
        -1.0
      ],
      "type": "VEC3"
    },
    {
      "bufferView": 1,
      "byteOffset": 1573816,
      "componentType": 5126,
      "count": 65532,
      "max": [
        0.987548828125,
        0.992919921875
      ],
      "min": [
        0.0,
        0.0087890625
      ],
      "type": "VEC2"
    },
    {
      "bufferView": 0,
      "byteOffset": 3608700,
      "componentType": 5125,
      "count": 276189,
      "type": "SCALAR"
    },
    {
      "bufferView": 2,
      "byteOffset": 6294216,
      "componentType": 5126,
      "count": 65532,
      "max": [
        0.29931640625,
        0.49078369140625,
        0.1876678466796875
      ],
      "min": [
        -0.301239013671875,
        -0.499969482421875,
        -0.221954345703125
      ],
      "type": "VEC3"
    },
    {
      "bufferView": 2,
      "byteOffset": 7080600,
      "componentType": 5126,
      "count": 65532,
      "max": [
        1.0,
        0.9999696016311646,
        0.9999688863754272
      ],
      "min": [
        -0.9999688863754272,
        -0.999876856803894,
        -0.9994757771492004
      ],
      "type": "VEC3"
    },
    {
      "bufferView": 1,
      "byteOffset": 2098072,
      "componentType": 5126,
      "count": 65532,
      "max": [
        0.9921875,
        0.99853515625
      ],
      "min": [
        0.0,
        0.000244140625
      ],
      "type": "VEC2"
    },
    {
      "bufferView": 0,
      "byteOffset": 4713456,
      "componentType": 5125,
      "count": 270759,
      "type": "SCALAR"
    },
    {
      "bufferView": 2,
      "byteOffset": 7866984,
      "componentType": 5126,
      "count": 65532,
      "max": [
        0.29974365234375,
        0.499969482421875,
        0.30029296875
      ],
      "min": [
        -0.299713134765625,
        -0.5,
        -0.170745849609375
      ],
      "type": "VEC3"
    },
    {
      "bufferView": 2,
      "byteOffset": 8653368,
      "componentType": 5126,
      "count": 65532,
      "max": [
        0.9999696016311646,
        1.0,
        1.0
      ],
      "min": [
        -0.9999696016311646,
        -1.0,
        -0.9998751878738403
      ],
      "type": "VEC3"
    },
    {
      "bufferView": 1,
      "byteOffset": 2622328,
      "componentType": 5126,
      "count": 65532,
      "max": [
        0.99951171875,
        0.9990234375
      ],
      "min": [
        0.0,
        0.0
      ],
      "type": "VEC2"
    },
    {
      "bufferView": 0,
      "byteOffset": 5796492,
      "componentType": 5125,
      "count": 294453,
      "type": "SCALAR"
    },
    {
      "bufferView": 2,
      "byteOffset": 9439752,
      "componentType": 5126,
      "count": 65532,
      "max": [
        0.262939453125,
        0.499847412109375,
        0.31085205078125
      ],
      "min": [
        -0.265289306640625,
        -0.49945068359375,
        -0.026386260986328125
      ],
      "type": "VEC3"
    },
    {
      "bufferView": 2,
      "byteOffset": 10226136,
      "componentType": 5126,
      "count": 65532,
      "max": [
        0.999876856803894,
        0.9995982050895691,
        0.9999688863754272
      ],
      "min": [
        -0.9999696016311646,
        -0.9991962909698486,
        -0.9999375939369202
      ],
      "type": "VEC3"
    },
    {
      "bufferView": 1,
      "byteOffset": 3146584,
      "componentType": 5126,
      "count": 65532,
      "max": [
        0.98095703125,
        0.9931640625
      ],
      "min": [
        0.000244140625,
        0.0009765625
      ],
      "type": "VEC2"
    },
    {
      "bufferView": 0,
      "byteOffset": 6974304,
      "componentType": 5125,
      "count": 302448,
      "type": "SCALAR"
    },
    {
      "bufferView": 2,
      "byteOffset": 11012520,
      "componentType": 5126,
      "count": 65534,
      "max": [
        0.230377197265625,
        0.49346923828125,
        0.312042236328125
      ],
      "min": [
        -0.263763427734375,
        -0.45465087890625,
        0.007473945617675781
      ],
      "type": "VEC3"
    },
    {
      "bufferView": 2,
      "byteOffset": 11798928,
      "componentType": 5126,
      "count": 65534,
      "max": [
        0.9999696016311646,
        0.9999688863754272,
        0.9998448491096497
      ],
      "min": [
        -0.9995966553688049,
        -0.9946898221969604,
        -0.9999375939369202
      ],
      "type": "VEC3"
    },
    {
      "bufferView": 1,
      "byteOffset": 3670840,
      "componentType": 5126,
      "count": 65534,
      "max": [
        0.998291015625,
        0.986083984375
      ],
      "min": [
        0.00732421875,
        0.011474609375
      ],
      "type": "VEC2"
    },
    {
      "bufferView": 0,
      "byteOffset": 8184096,
      "componentType": 5125,
      "count": 289851,
      "type": "SCALAR"
    },
    {
      "bufferView": 2,
      "byteOffset": 12585336,
      "componentType": 5126,
      "count": 65532,
      "max": [
        0.28436279296875,
        0.49993896484375,
        0.279632568359375
      ],
      "min": [
        -0.297821044921875,
        -0.48760986328125,
        -0.045806884765625
      ],
      "type": "VEC3"
    },
    {
      "bufferView": 2,
      "byteOffset": 13371720,
      "componentType": 5126,
      "count": 65532,
      "max": [
        0.999846339225769,
        0.9999375939369202,
        1.0
      ],
      "min": [
        -0.9999696016311646,
        -0.9999392032623291,
        -0.999845564365387
      ],
      "type": "VEC3"
    },
    {
      "bufferView": 1,
      "byteOffset": 4195112,
      "componentType": 5126,
      "count": 65532,
      "max": [
        0.99462890625,
        0.9951171875
      ],
      "min": [
        0.006591796875,
        0.0
      ],
      "type": "VEC2"
    },
    {
      "bufferView": 0,
      "byteOffset": 9343500,
      "componentType": 5125,
      "count": 257589,
      "type": "SCALAR"
    },
    {
      "bufferView": 2,
      "byteOffset": 14158104,
      "componentType": 5126,
      "count": 56322,
      "max": [
        0.29974365234375,
        0.49688720703125,
        0.1357879638671875
      ],
      "min": [
        -0.3013916015625,
        -0.5,
        -0.1671905517578125
      ],
      "type": "VEC3"
    },
    {
      "bufferView": 2,
      "byteOffset": 14833968,
      "componentType": 5126,
      "count": 56322,
      "max": [
        0.9999383687973022,
        0.999876856803894,
        0.9999688863754272
      ],
      "min": [
        -1.0,
        -1.0,
        -0.9969140291213989
      ],
      "type": "VEC3"
    },
    {
      "bufferView": 1,
      "byteOffset": 4719368,
      "componentType": 5126,
      "count": 56322,
      "max": [
        0.9951171875,
        0.994140625
      ],
      "min": [
        0.0,
        0.03125
      ],
      "type": "VEC2"
    },
    {
      "bufferView": 0,
      "byteOffset": 10373856,
      "componentType": 5125,
      "count": 197850,
      "type": "SCALAR"
    }
  ],
  "asset": {
    "extras": {
      "author": "leofinearts (https://sketchfab.com/leofinearts)",
      "license": "CC-BY-4.0 (http://creativecommons.org/licenses/by/4.0/)",
      "source": "https://sketchfab.com/3d-models/african-tribal-woman-e9123efade444eb98e7be6d4d6c2e66e",
      "title": "African Tribal Woman"
    },
    "generator": "Sketchfab-16.95.0",
    "version": "2.0"
  },
  "bufferViews": [
    {
      "buffer": 0,
      "byteLength": 11165256,
      "name": "floatBufferViews",
      "target": 34963
    },
    {
      "buffer": 0,
      "byteLength": 5169944,
      "byteOffset": 11165256,
      "byteStride": 8,
      "name": "floatBufferViews",
      "target": 34962
    },
    {
      "buffer": 0,
      "byteLength": 15509832,
      "byteOffset": 16335200,
      "byteStride": 12,
      "name": "floatBufferViews",
      "target": 34962
    }
  ],
  "buffers": [
    {
      "byteLength": 31845032,
      "uri": "scene.bin"
    }
  ],
  "images": [
    {
      "uri": "textures/tripo_mat_06258df4_baseColor.jpeg"
    }
  ],
  "materials": [
    {
      "doubleSided": true,
      "name": "Material",
      "pbrMetallicRoughness": {
        "baseColorFactor": [
          0.315215,
          0.325649,
          0.33034,
          1.0
        ],
        "metallicFactor": 0.0,
        "roughnessFactor": 0.5
      }
    },
    {
      "doubleSided": true,
      "name": "tripo_mat_06258df4",
      "pbrMetallicRoughness": {
        "baseColorTexture": {
          "index": 0
        },
        "metallicFactor": 0.0,
        "roughnessFactor": 0.9
      }
    }
  ],
  "meshes": [
    {
      "name": "Object_0",
      "primitives": [
        {
          "attributes": {
            "NORMAL": 1,
            "POSITION": 0,
            "TEXCOORD_0": 2
          },
          "indices": 3,
          "material": 0,
          "mode": 4
        }
      ]
    },
    {
      "name": "Object_1",
      "primitives": [
        {
          "attributes": {
            "NORMAL": 5,
            "POSITION": 4,
            "TEXCOORD_0": 6
          },
          "indices": 7,
          "material": 1,
          "mode": 4
        }
      ]
    },
    {
      "name": "Object_2",
      "primitives": [
        {
          "attributes": {
            "NORMAL": 9,
            "POSITION": 8,
            "TEXCOORD_0": 10
          },
          "indices": 11,
          "material": 1,
          "mode": 4
        }
      ]
    },
    {
      "name": "Object_3",
      "primitives": [
        {
          "attributes": {
            "NORMAL": 13,
            "POSITION": 12,
            "TEXCOORD_0": 14
          },
          "indices": 15,
          "material": 1,
          "mode": 4
        }
      ]
    },
    {
      "name": "Object_4",
      "primitives": [
        {
          "attributes": {
            "NORMAL": 17,
            "POSITION": 16,
            "TEXCOORD_0": 18
          },
          "indices": 19,
          "material": 1,
          "mode": 4
        }
      ]
    },
    {
      "name": "Object_5",
      "primitives": [
        {
          "attributes": {
            "NORMAL": 21,
            "POSITION": 20,
            "TEXCOORD_0": 22
          },
          "indices": 23,
          "material": 1,
          "mode": 4
        }
      ]
    },
    {
      "name": "Object_6",
      "primitives": [
        {
          "attributes": {
            "NORMAL": 25,
            "POSITION": 24,
            "TEXCOORD_0": 26
          },
          "indices": 27,
          "material": 1,
          "mode": 4
        }
      ]
    },
    {
      "name": "Object_7",
      "primitives": [
        {
          "attributes": {
            "NORMAL": 29,
            "POSITION": 28,
            "TEXCOORD_0": 30
          },
          "indices": 31,
          "material": 1,
          "mode": 4
        }
      ]
    },
    {
      "name": "Object_8",
      "primitives": [
        {
          "attributes": {
            "NORMAL": 33,
            "POSITION": 32,
            "TEXCOORD_0": 34
          },
          "indices": 35,
          "material": 1,
          "mode": 4
        }
      ]
    },
    {
      "name": "Object_9",
      "primitives": [
        {
          "attributes": {
            "NORMAL": 37,
            "POSITION": 36,
            "TEXCOORD_0": 38
          },
          "indices": 39,
          "material": 1,
          "mode": 4
        }
      ]
    },
    {
      "name": "Object_10",
      "primitives": [
        {
          "attributes": {
            "NORMAL": 41,
            "POSITION": 40,
            "TEXCOORD_0": 42
          },
          "indices": 43,
          "material": 1,
          "mode": 4
        }
      ]
    }
  ],
  "nodes": [
    {
      "children": [
        1
      ],
      "matrix": [
        1.0,
        0.0,
        0.0,
        0.0,
        0.0,
        2.220446049250313e-16,
        -1.0,
        0.0,
        0.0,
        1.0,
        2.220446049250313e-16,
        0.0,
        0.0,
        0.0,
        0.0,
        1.0
      ],
      "name": "Sketchfab_model"
    },
    {
      "children": [
        2
      ],
      "name": "root"
    },
    {
      "children": [
        3,
        5
      ],
      "matrix": [
        1.0,
        0.0,
        0.0,
        0.0,
        0.0,
        2.220446049250313e-16,
        1.0,
        0.0,
        0.0,
        -1.0,
        2.220446049250313e-16,
        0.0,
        0.0,
        0.0,
        0.0,
        1.0
      ],
      "name": "GLTF_SceneRootNode"
    },
    {
      "children": [
        4
      ],
      "matrix": [
        1.0,
        0.0,
        0.0,
        0.0,
        0.0,
        1.0,
        0.0,
        0.0,
        0.0,
        0.0,
        1.0,
        0.0,
        0.0,
        0.08682019263505936,
        0.0,
        1.0
      ],
      "name": "Cube_0"
    },
    {
      "mesh": 0,
      "name": "Object_4"
    },
    {
      "children": [
        6,
        7,
        8,
        9,
        10,
        11,
        12,
        13,
        14,
        15
      ],
      "matrix": [
        1.0,
        0.0,
        0.0,
        0.0,
        0.0,
        1.0,
        0.0,
        0.0,
        0.0,
        0.0,
        1.0,
        0.0,
        0.0,
        0.6584679484367371,
        0.0,
        1.0
      ],
      "name": "tripo_node_06258df4_1"
    },
    {
      "mesh": 1,
      "name": "Object_6"
    },
    {
      "mesh": 2,
      "name": "Object_7"
    },
    {
      "mesh": 3,
      "name": "Object_8"
    },
    {
      "mesh": 4,
      "name": "Object_9"
    },
    {
      "mesh": 5,
      "name": "Object_10"
    },
    {
      "mesh": 6,
      "name": "Object_11"
    },
    {
      "mesh": 7,
      "name": "Object_12"
    },
    {
      "mesh": 8,
      "name": "Object_13"
    },
    {
      "mesh": 9,
      "name": "Object_14"
    },
    {
      "mesh": 10,
      "name": "Object_15"
    }
  ],
  "samplers": [
    {
      "magFilter": 9729,
      "minFilter": 9987,
      "wrapS": 10497,
      "wrapT": 10497
    }
  ],
  "scene": 0,
  "scenes": [
    {
      "name": "Sketchfab_Scene",
      "nodes": [
        0
      ]
    }
  ],
  "textures": [
    {
      "sampler": 0,
      "source": 0
    }
  ]
}
